<svg id="BIB" xmlns="http://www.w3.org/2000/svg" width="3600" height="3600" viewBox="0 0 3600 3600">
  <defs>
    <style>
      .cls-1 {
        fill: #fff;
        stroke-width: 15.97px;
      }

      .cls-1, .cls-6 {
        stroke: #c2b6ff;
      }

      .cls-1, .cls-2, .cls-3, .cls-5, .cls-6, .cls-7 {
        fill-rule: evenodd;
      }

      .cls-2 {
        fill: #ccf2ff;
        stroke-width: 16.61px;
      }

      .cls-2, .cls-3 {
        stroke: #fff;
      }

      .cls-3, .cls-4, .cls-5 {
        fill: #8ee3ff;
      }

      .cls-3 {
        stroke-width: 14.69px;
      }

      .cls-6 {
        fill: none;
        stroke-linecap: round;
        stroke-width: 21.1px;
      }

      .cls-7 {
        fill: #c2b6ff;
      }

      .cls-8 {
        fill: #a290ff;
      }
    </style>
  </defs>
  <path id="body" class="cls-1" d="M1705,1478c-50.8,4.67-79.83,9.15-103,31-46.57,43.91-36.86,122.08-34,155,14.46,166.61-60.45,361.8-75,597-2.17,35.14-6.27,113.38,44,171,26.13,29.96,121.66,65.46,260,64,130.29-1.37,218.25-34.38,246-66,47.62-54.26,46.85-125.57,46-160-5.87-238.57-81.29-427.83-68-606,2.42-32.41,11.12-112.57-37-156-23.5-21.21-51.1-25.17-93-29C1821.95,1472.69,1774.05,1471.65,1705,1478Z"/>
  <path id="top" class="cls-2" d="M1633,1393c-3.47-11.79,11.25-41.88,44-79,27.48-31.15,54.79-43.71,67-76,12.43-32.86-4.94-79.63,18-99,9.28-7.84,22.74-9.51,33-9,8.88,0.44,22.92,3.27,33,13,22.23,21.46,6.62,63.15,18,93,12.69,33.28,59.21,63.1,70,75,37.74,41.63,51.51,73.19,46,89C1937.61,1469.95,1653.61,1463.08,1633,1393Z"/>
  <path id="circle" class="cls-3" d="M1570.96,1390.42c19.85-16.95,52.83-12.48,64.31-10.98,43.03,5.62,115.84,13.74,154.57,13.97,37.89,0.23,108.69-7.51,170.37-14.97,10.49-1.27,38.51-4.68,56.41,9.98,15.52,12.7,15.78,32.57,15.8,45.91,0.06,30.6,1.91,61.44-3.38,70.87-19.23,34.27-98.9,51.07-239.2,49.9-136.09-1.14-212.38-18.05-231.29-52.9-4.05-7.45-4.1-38.47-3.39-67.87C1555.49,1420.89,1556.42,1402.83,1570.96,1390.42Z"/>
  <ellipse class="cls-4" cx="1634.5" cy="2074.5" rx="18.5" ry="41.5"/>
  <ellipse id="Ellipse_1_copie" data-name="Ellipse 1 copie" class="cls-4" cx="1951.28" cy="2074.5" rx="18.5" ry="41.5"/>
  <path class="cls-5" d="M1797.77,2178.5c14.09,0,25.5,2.68,25.5,6s-11.41,6-25.5,6-25.5-2.69-25.5-6S1783.69,2178.5,1797.77,2178.5Z"/>
  <g id="hands">
    <path id="Forme_3" data-name="Forme 3" class="cls-6" d="M1521,2125c-65.89,46.73-94.29,121.2-78,181,22.99,84.35,135.74,144.73,248,101"/>
    <path id="Forme_3_copie" data-name="Forme 3 copie" class="cls-6" d="M2069.16,2125c65.89,46.73,94.29,121.2,78,181-22.99,84.35-135.75,144.73-248,101"/>
    <path id="Forme_5" data-name="Forme 5" class="cls-7" d="M1937.04,2418c6.3-17.34-24.38-47.73-57-60-31-11.66-70.11-9.33-74,3-1.1,3.49.66,7.63,3,10,5.23,5.32,13.85,2.36,25,3,15.9,0.91,30.19,8.81,30,14-0.18,5.04-14.56,6.23-20,16a23.654,23.654,0,0,0,0,22c10.48,18.79,50.86,13.23,74,5C1929.32,2426.99,1935.61,2421.95,1937.04,2418Z"/>
    <path id="Forme_5_copie" data-name="Forme 5 copie" class="cls-7" d="M1665.87,2414.77c-6.29-17.28,24.35-47.6,56.93-59.83,30.97-11.62,70.03-9.3,73.91,2.99,1.1,3.48-.66,7.61-2.99,9.98-5.23,5.3-13.84,2.35-24.97,2.99-15.88.91-30.16,8.78-29.97,13.96,0.19,5.02,14.54,6.21,19.98,15.95a23.562,23.562,0,0,1,0,21.94c-10.46,18.73-50.8,13.2-73.91,4.99C1673.58,2423.73,1667.3,2418.71,1665.87,2414.77Z"/>
  </g>
  <g id="points">
    <circle class="cls-8" cx="2224.5" cy="1196.5" r="18.5"/>
    <circle id="Ellipse_3_copie" data-name="Ellipse 3 copie" class="cls-8" cx="2156.88" cy="1196.5" r="18.5"/>
    <circle id="Ellipse_3_copie_2" data-name="Ellipse 3 copie 2" class="cls-8" cx="2091.19" cy="1196.5" r="18.5"/>
  </g>
</svg>
