<?xml version="1.0" standalone="no"?>
<!DOCTYPE svg PUBLIC "-//W3C//DTD SVG 20010904//EN"
 "http://www.w3.org/TR/2001/REC-SVG-20010904/DTD/svg10.dtd">
<svg version="1.0" xmlns="http://www.w3.org/2000/svg"
 width="990.000000pt" height="990.000000pt" viewBox="0 0 990.000000 990.000000"
 preserveAspectRatio="xMidYMid meet">
<metadata>
Created by potrace 1.14, written by Peter Selinger 2001-2017
</metadata>
<g transform="translate(0.000000,990.000000) scale(0.100000,-0.100000)"
fill="#000000" stroke="none">
<path d="M6557 9710 c-171 -36 -317 -99 -487 -210 -52 -35 -97 -66 -100 -69
-9 -13 -205 -139 -250 -161 -53 -27 -147 -60 -169 -60 -11 0 -17 10 -19 28 -6
72 -97 204 -172 249 -123 73 -303 19 -352 -106 -29 -75 6 -184 82 -255 35 -33
142 -89 185 -98 16 -3 11 -10 -30 -36 -62 -41 -135 -63 -216 -65 l-62 -2 -12
45 c-34 129 -132 236 -247 271 -18 5 -60 10 -94 11 -107 1 -192 -55 -218 -143
-42 -142 70 -265 299 -329 44 -12 81 -23 83 -25 1 -1 -4 -15 -13 -31 -18 -34
-19 -55 -4 -87 23 -50 104 -68 140 -30 9 10 27 45 40 78 l24 60 75 3 c41 2
100 10 130 19 30 8 60 16 65 17 19 5 90 41 103 54 7 6 16 12 20 12 22 1 123
116 147 167 1 2 21 5 45 8 66 9 188 52 253 91 32 19 60 34 63 34 2 0 41 26 87
57 45 31 129 89 187 129 230 158 381 213 588 216 101 2 149 -4 258 -33 79 -20
94 -26 209 -77 48 -22 176 -101 229 -142 261 -204 469 -527 611 -952 44 -131
118 -409 129 -484 4 -22 10 -61 16 -89 11 -60 18 -107 26 -177 3 -29 7 -58 9
-65 2 -6 7 -65 11 -130 8 -119 9 -220 3 -683 -2 -221 4 -390 15 -409 2 -3 7
-28 10 -56 26 -196 139 -435 268 -564 122 -122 277 -194 471 -217 39 -5 129
-26 242 -57 25 -7 124 -68 165 -102 144 -121 263 -360 295 -595 3 -25 8 -63
11 -85 7 -52 8 -355 0 -392 -3 -15 -8 -59 -11 -98 -4 -38 -8 -72 -10 -75 -2
-3 -6 -29 -10 -57 -5 -42 -80 -384 -99 -453 -2 -8 -9 -35 -16 -60 -39 -147
-147 -461 -191 -557 -10 -24 -19 -46 -19 -49 0 -34 -300 -655 -336 -695 -8 -8
-14 -19 -14 -23 0 -17 -325 -527 -349 -546 -3 -3 -19 -25 -36 -50 -16 -25 -35
-52 -42 -60 -7 -8 -41 -51 -75 -95 -34 -44 -67 -85 -72 -91 -6 -7 -27 -31 -46
-55 -57 -72 -220 -230 -294 -286 -93 -69 -249 -147 -343 -172 -77 -21 -127
-26 -243 -25 -196 1 -469 66 -815 192 -253 93 -842 337 -1085 450 -47 21 -114
52 -150 68 -138 60 -482 240 -730 381 -75 43 -197 119 -242 150 -26 18 -52 33
-58 33 -5 0 -10 4 -10 8 0 4 -15 16 -32 27 -63 37 -284 201 -417 310 -135 110
-420 391 -508 500 -26 33 -53 65 -59 70 -34 31 -264 349 -264 364 0 5 -4 11
-8 13 -8 3 -122 184 -175 278 -57 99 -188 362 -241 485 -32 72 -63 144 -71
160 -28 61 -167 444 -182 500 l-6 20 20 -20 c11 -11 48 -54 84 -95 35 -41 82
-95 104 -120 61 -69 392 -397 474 -470 41 -36 79 -70 85 -75 106 -98 441 -351
632 -477 351 -232 653 -395 1039 -563 17 -7 50 -22 75 -33 65 -28 337 -128
460 -169 197 -65 559 -160 715 -188 17 -3 68 -12 115 -20 47 -8 94 -17 105
-19 11 -2 43 -7 70 -10 28 -4 61 -9 75 -11 78 -12 228 -29 345 -40 154 -14
202 -25 191 -43 -10 -16 34 -197 62 -255 65 -137 181 -200 314 -172 71 16 144
104 152 183 4 49 -26 136 -69 197 -66 93 -126 142 -230 185 -55 23 -60 28 -59
55 2 60 15 171 26 210 10 38 12 48 22 94 24 105 132 332 229 479 78 119 217
302 229 302 5 0 8 5 8 10 0 6 8 18 18 28 43 46 194 212 236 261 34 41 46 63
46 87 0 44 -35 83 -81 90 -33 6 -41 2 -80 -38 -24 -24 -73 -77 -109 -117 -36
-40 -70 -79 -75 -85 -42 -47 -203 -247 -252 -314 l-61 -82 -17 27 c-90 143
-235 285 -384 377 -119 75 -366 184 -526 233 -44 13 -98 30 -120 38 -51 18
-392 113 -425 118 -14 3 -43 10 -65 15 -46 12 -223 49 -275 57 -19 3 -60 10
-90 15 -30 6 -75 12 -100 14 -25 3 -74 8 -110 12 -36 3 -159 8 -275 10 -115 1
-213 3 -216 3 -6 1 -17 30 -15 41 1 3 -9 19 -22 37 -12 17 -22 34 -22 37 0 15
-90 127 -160 197 -91 92 -211 175 -345 239 -89 42 -228 94 -281 104 -10 2 -46
11 -79 20 -198 51 -506 66 -649 32 -222 -53 -382 -168 -460 -328 l-34 -70 -24
27 c-12 15 -28 33 -33 39 -23 25 -194 245 -231 296 -119 167 -162 197 -222
154 -45 -31 -45 -55 -6 -208 89 -348 211 -705 352 -1026 65 -150 238 -487 312
-610 67 -113 198 -312 210 -320 4 -3 12 -15 19 -27 15 -29 215 -285 272 -348
113 -126 303 -315 389 -388 52 -45 102 -89 110 -97 8 -9 35 -31 60 -50 25 -19
47 -37 50 -40 22 -24 164 -127 310 -224 96 -64 180 -120 185 -124 34 -23 365
-212 485 -276 389 -208 763 -383 1168 -546 78 -32 137 -60 130 -63 -7 -3 -64
-26 -127 -51 -229 -93 -403 -201 -535 -331 -78 -78 -94 -96 -130 -154 -14 -22
-29 -42 -34 -45 -4 -2 -48 21 -98 53 -153 98 -477 292 -754 450 -146 83 -272
156 -280 161 -18 11 -331 190 -382 219 -21 12 -55 30 -75 42 -21 12 -76 44
-123 73 -47 28 -94 56 -105 63 -11 7 -27 15 -35 19 -8 4 -50 29 -93 56 -43 26
-83 48 -88 48 -5 0 -9 5 -9 10 0 6 -4 10 -9 10 -35 0 -732 454 -1011 659 -144
105 -446 345 -480 381 -3 3 -50 45 -105 94 -119 107 -253 241 -315 315 -25 29
-49 59 -55 65 -5 7 -14 19 -20 27 -5 9 -28 42 -49 74 -79 118 -183 358 -200
463 -42 245 -37 412 20 580 68 202 146 300 349 433 66 43 125 83 132 89 7 5
15 10 19 10 8 0 91 66 119 95 75 77 122 152 155 246 19 53 23 84 23 184 1 103
-3 131 -26 200 -36 108 -49 125 -95 125 -48 0 -77 -21 -92 -64 -9 -28 -7 -43
9 -87 46 -125 42 -239 -12 -354 -42 -88 -94 -140 -222 -223 -179 -116 -200
-130 -235 -161 -61 -55 -150 -145 -150 -152 0 -4 -6 -14 -13 -21 -22 -22 -85
-145 -110 -216 -29 -80 -54 -190 -65 -289 -9 -76 -8 -268 1 -318 3 -16 8 -50
12 -75 9 -58 49 -216 65 -255 7 -16 23 -54 36 -83 13 -29 24 -55 24 -58 0 -4
27 -50 103 -179 7 -11 14 -22 17 -25 3 -3 17 -21 30 -40 13 -19 29 -40 35 -46
5 -6 35 -40 65 -75 116 -136 368 -377 520 -496 8 -6 42 -34 75 -61 33 -27 119
-93 190 -146 72 -52 135 -99 140 -104 6 -4 33 -23 60 -42 28 -19 52 -38 55
-41 3 -4 106 -75 230 -158 124 -83 230 -155 237 -161 7 -5 14 -10 17 -10 3 0
61 -35 128 -78 195 -124 938 -561 1258 -740 25 -14 110 -63 189 -109 79 -45
146 -83 149 -83 3 0 13 -6 21 -14 9 -7 41 -27 71 -43 30 -16 84 -48 120 -70
36 -21 72 -42 80 -46 8 -4 35 -21 60 -37 25 -16 59 -36 75 -44 17 -9 120 -72
229 -141 110 -69 207 -125 217 -125 44 0 67 21 124 117 66 110 170 221 277
297 63 44 298 171 298 160 0 -2 17 4 38 15 20 10 105 42 189 70 l151 52 129
-45 c255 -89 473 -158 540 -171 186 -36 220 -39 368 -40 102 0 180 5 215 14
76 18 150 42 180 58 14 7 29 13 33 13 18 0 155 86 222 139 123 97 294 275 380
395 11 16 27 36 36 45 8 9 33 41 54 71 22 30 43 57 47 58 5 2 8 10 8 18 0 8 4
14 9 14 4 0 24 24 44 53 19 28 72 106 117 172 268 390 526 891 694 1345 100
273 217 670 250 850 2 14 11 63 20 110 23 126 24 135 33 224 10 104 10 382 1
466 -36 319 -145 569 -323 745 -150 149 -237 187 -545 239 -173 29 -292 87
-387 188 -86 91 -144 206 -182 360 -38 156 -41 215 -46 733 -2 242 -6 463 -8
490 -8 98 -18 190 -22 220 -3 17 -7 53 -10 80 -3 28 -10 75 -15 105 -5 30 -12
73 -16 95 -3 22 -12 72 -21 110 -8 39 -16 79 -19 90 -2 11 -18 67 -35 125 -17
58 -37 125 -44 150 -22 74 -84 228 -138 340 -221 458 -537 778 -907 919 -193
74 -435 98 -613 61z m-1267 -402 c40 -22 67 -57 75 -99 3 -16 -1 -18 -28 -14
-52 10 -98 37 -118 69 -41 67 -9 86 71 44z m-577 -277 c21 -20 45 -48 53 -63
l14 -27 -53 16 c-80 24 -137 58 -137 83 0 14 52 38 70 32 8 -2 32 -21 53 -41z
m-1168 -4006 c78 -6 89 -8 230 -37 348 -71 620 -236 759 -462 72 -115 104
-220 104 -341 0 -231 -123 -394 -358 -477 -30 -11 -62 -21 -70 -23 -8 -1 -41
-10 -72 -20 -93 -26 -104 -27 -142 -3 -66 42 -369 259 -428 306 l-58 47 48 24
c57 29 87 62 109 119 19 50 10 94 -20 100 -21 4 -57 -24 -57 -45 0 -37 -33
-76 -85 -98 -29 -13 -55 -29 -57 -36 -6 -18 -243 188 -435 378 l-162 160 9 59
c16 111 36 158 93 214 28 27 128 90 149 94 7 1 18 4 23 7 19 12 96 26 195 38
57 7 108 6 225 -4z m1690 -729 c33 -4 87 -11 120 -16 33 -5 85 -12 115 -15 30
-4 58 -9 61 -11 3 -2 21 -6 39 -9 63 -11 305 -64 365 -80 603 -160 874 -274
1078 -455 73 -65 163 -176 207 -257 13 -24 27 -43 31 -43 4 0 -19 -53 -52
-117 -92 -183 -164 -427 -173 -587 -2 -37 -5 -41 -26 -40 -25 2 -132 11 -205
19 -22 2 -67 7 -100 10 -33 3 -78 8 -100 10 -22 3 -62 7 -89 10 -317 33 -879
177 -1281 328 -258 97 -652 278 -830 382 -33 19 -79 45 -103 57 l-43 22 83 26
c180 56 272 122 367 260 85 125 115 226 116 392 l0 127 180 -3 c99 -2 207 -7
240 -10z m2077 -1934 c50 -38 75 -84 55 -100 -7 -5 -26 -17 -43 -25 -43 -22
-58 -8 -78 73 -9 36 -19 73 -22 83 -5 16 -2 18 18 12 12 -4 44 -23 70 -43z"/>
<path d="M3886 4797 c-11 -8 -19 -29 -20 -57 -2 -25 -8 -57 -14 -71 -10 -25
-87 -99 -104 -99 -16 0 -8 -37 12 -55 57 -52 185 77 194 197 5 60 1 70 -30 86
-16 8 -25 8 -38 -1z"/>
<path d="M4244 4262 c-6 -4 -14 -28 -17 -54 -8 -62 -23 -83 -74 -110 -50 -27
-62 -52 -37 -79 21 -23 35 -24 77 -3 74 37 129 123 125 194 -3 45 -42 73 -74
52z"/>
<path d="M530 9389 c-154 -25 -335 -151 -418 -292 -47 -78 -87 -181 -100 -256
-14 -79 -8 -229 12 -293 8 -27 13 -48 11 -48 -2 0 12 -33 32 -72 105 -218 322
-363 552 -371 55 -2 55 -3 9 -78 -15 -25 -28 -49 -28 -52 0 -3 -22 -43 -48
-89 -61 -106 -125 -240 -163 -341 -90 -243 -105 -430 -55 -697 12 -64 68 -214
112 -302 244 -486 536 -721 899 -722 264 0 505 104 705 304 107 106 150 155
150 169 0 5 3 11 8 13 24 10 132 205 163 294 41 119 59 223 54 329 -4 111 -11
161 -30 215 l-13 36 75 99 c40 55 79 107 86 115 7 8 23 31 37 50 13 19 27 37
30 40 4 3 38 43 75 90 89 111 161 187 259 275 136 122 291 202 471 242 44 9
224 3 285 -10 155 -34 256 -86 355 -182 131 -126 188 -254 189 -420 0 -125
-16 -189 -89 -341 -145 -304 -175 -497 -100 -645 l24 -46 -30 -29 c-69 -66
-128 -184 -145 -289 -3 -19 -6 -113 -8 -208 -2 -175 -17 -257 -52 -298 -8 -8
-14 -19 -14 -22 0 -15 -67 -69 -116 -93 -70 -34 -152 -41 -246 -20 -85 19 -97
17 -121 -23 -21 -36 -21 -63 -2 -101 12 -23 29 -34 78 -49 76 -23 208 -25 281
-4 165 48 297 177 344 333 18 57 23 108 27 250 5 160 14 259 25 280 4 8 8 18
9 23 7 59 73 119 145 132 23 4 51 18 68 35 23 24 27 35 23 66 -2 20 -6 38 -7
39 -130 88 -154 129 -145 249 6 88 31 161 108 324 109 228 121 265 127 378 6
124 -14 229 -64 346 -29 67 -36 99 -39 163 -2 44 -7 91 -10 105 -4 14 -9 41
-12 60 -15 97 -127 335 -189 401 -13 14 -24 29 -24 33 0 8 -74 90 -135 147
-83 79 -113 103 -212 170 -460 311 -1046 409 -1630 273 -80 -18 -218 -61 -258
-79 -16 -7 -66 -28 -110 -46 -206 -86 -392 -210 -577 -388 -57 -55 -104 -98
-104 -98 -1 1 10 45 24 97 32 122 36 326 8 430 -55 200 -177 338 -346 389 -46
14 -163 20 -220 10z m191 -191 c124 -37 211 -199 211 -393 0 -152 -42 -314
-125 -485 -28 -58 -36 -66 -72 -77 -183 -53 -402 53 -495 242 -77 157 -79 301
-6 450 63 127 200 242 321 268 41 9 129 7 166 -5z m2014 -252 c66 -3 136 -8
155 -11 153 -25 277 -58 425 -112 108 -39 325 -153 363 -190 8 -7 23 -18 34
-24 62 -33 221 -195 285 -289 54 -81 136 -270 117 -270 -2 0 -26 16 -53 35
-59 43 -155 87 -236 109 -353 96 -788 -37 -1094 -334 -25 -25 -75 -79 -111
-120 -36 -41 -71 -81 -78 -88 -7 -8 -25 -30 -40 -50 -15 -21 -29 -39 -32 -42
-3 -3 -48 -62 -99 -132 -51 -71 -95 -128 -98 -128 -3 0 -17 8 -31 19 -78 55
-206 65 -289 24 -123 -62 -219 -233 -227 -405 -9 -179 138 -269 302 -187 44
22 84 54 142 117 l81 86 -2 -89 c-6 -317 -252 -675 -569 -829 -166 -80 -335
-99 -505 -55 -121 31 -280 157 -413 324 -31 40 -110 169 -147 242 -149 295
-169 565 -64 868 28 80 121 270 207 426 38 69 74 134 80 145 62 113 85 144
130 170 26 15 49 30 52 33 3 4 25 22 50 41 44 33 97 82 224 204 68 65 203 176
215 176 4 0 16 8 27 18 31 29 196 121 291 162 194 83 442 145 634 156 57 4
105 8 107 9 1 1 12 1 25 -1 12 -2 76 -5 142 -8z m-601 -1773 c20 -10 36 -23
36 -30 0 -11 -117 -159 -142 -178 -39 -30 -72 -46 -91 -43 -52 7 -5 173 68
237 41 36 77 40 129 14z"/>
<path d="M5865 7534 c-90 -81 -211 -127 -354 -133 -29 -1 -61 -23 -61 -42 0
-5 9 -18 21 -30 17 -17 28 -19 82 -14 137 13 243 54 348 132 70 53 87 80 70
112 -18 32 -51 25 -106 -25z"/>
<path d="M4802 7189 c-29 -23 -39 -55 -36 -109 11 -183 16 -238 29 -316 21
-123 32 -173 67 -294 56 -191 172 -453 216 -486 33 -26 84 -14 217 50 l130 63
53 -106 c52 -105 192 -374 260 -501 243 -456 324 -572 437 -620 92 -39 216
-41 330 -5 67 22 273 125 360 181 149 95 287 218 352 314 57 85 105 192 118
265 2 17 7 41 11 55 3 14 7 167 8 340 l3 315 30 100 c16 55 28 108 25 119 -7
28 -59 55 -95 49 -50 -8 -73 -30 -95 -91 -39 -112 -45 -177 -47 -487 -2 -359
-11 -406 -103 -542 -80 -118 -294 -288 -501 -398 -137 -72 -254 -87 -336 -43
-67 36 -105 89 -220 313 -99 190 -121 231 -172 325 -36 66 -141 269 -252 487
-57 113 -65 123 -97 132 -41 11 -41 11 -198 -63 -65 -31 -120 -56 -123 -56 -9
0 -78 161 -114 267 -38 112 -83 298 -93 383 -6 43 -11 119 -20 256 -2 34 -9
71 -15 82 -20 37 -95 49 -129 21z"/>
<path d="M3357 6975 c-22 -21 -10 -51 32 -84 72 -57 163 -90 261 -96 120 -7
187 23 156 69 -12 19 -24 21 -117 22 -115 0 -170 17 -241 74 -41 33 -69 38
-91 15z"/>
<path d="M6293 5931 c-70 -68 -107 -82 -188 -74 -60 6 -73 -4 -61 -52 14 -54
156 -58 238 -6 24 15 66 53 92 85 44 51 48 59 38 81 -19 41 -50 31 -119 -34z"/>
<path d="M3426 5918 c-11 -15 -12 -26 -5 -40 18 -33 229 -141 255 -131 17 6
27 38 19 62 -3 10 -35 32 -73 50 -37 17 -87 43 -112 56 -55 31 -65 31 -84 3z"/>
</g>
</svg>
