<?xml version="1.0" standalone="no"?>
<!DOCTYPE svg PUBLIC "-//W3C//DTD SVG 20010904//EN"
 "http://www.w3.org/TR/2001/REC-SVG-20010904/DTD/svg10.dtd">
<svg version="1.0" xmlns="http://www.w3.org/2000/svg"
 width="980.000000pt" height="980.000000pt" viewBox="0 0 980.000000 980.000000"
 preserveAspectRatio="xMidYMid meet">
<metadata>
Created by potrace 1.14, written by Peter Selinger 2001-2017
</metadata>
<g transform="translate(0.000000,980.000000) scale(0.100000,-0.100000)"
fill="#000000" stroke="none">
<path d="M8805 9786 c-139 -33 -260 -109 -455 -289 l-134 -125 -81 30 c-323
119 -777 149 -1153 77 -167 -32 -337 -93 -543 -195 -105 -52 -195 -94 -200
-94 -5 0 -41 25 -81 56 -224 173 -508 219 -759 125 -167 -63 -335 -224 -419
-402 -40 -86 -53 -176 -48 -343 4 -117 9 -154 31 -221 14 -43 25 -80 24 -81
-1 -1 -69 -7 -152 -13 -165 -11 -262 -32 -393 -86 -145 -59 -233 -119 -396
-270 -253 -235 -1368 -1340 -2627 -2601 l-1196 -1199 -47 -100 c-131 -276
-165 -395 -173 -605 -4 -110 -1 -168 11 -240 32 -183 116 -390 208 -515 25
-33 108 -127 185 -210 193 -206 1992 -1998 2128 -2120 210 -188 318 -257 495
-313 226 -72 541 -70 770 4 183 59 279 125 551 376 154 142 1598 1568 1964
1940 121 122 484 489 805 813 757 764 972 992 1033 1093 94 159 139 309 162
548 7 80 16 148 18 151 3 2 43 -8 89 -23 75 -25 97 -28 228 -28 161 0 241 15
342 65 212 104 350 276 409 509 18 71 21 104 17 205 -8 181 -55 305 -174 459
l-53 68 58 117 c130 258 207 475 242 676 20 111 23 166 24 375 0 325 -24 491
-102 713 l-35 97 118 128 c253 275 293 357 301 627 6 189 -2 240 -58 356 -113
233 -294 390 -524 454 -83 23 -330 29 -410 11z m294 -341 c226 -60 377 -264
358 -485 -12 -142 -35 -179 -267 -430 -83 -91 -162 -183 -175 -205 -23 -39
-24 -43 -10 -100 8 -33 32 -108 54 -168 98 -264 134 -506 112 -771 -21 -266
-59 -411 -171 -656 -34 -74 -64 -137 -66 -140 -5 -5 -2434 2421 -2434 2432 0
15 205 110 327 152 253 86 471 117 703 97 185 -15 306 -42 529 -117 215 -73
229 -74 301 -25 23 15 101 84 173 153 197 186 273 243 357 269 42 12 152 10
209 -6z m-3324 -387 c53 -10 66 -19 171 -115 206 -188 1025 -996 1899 -1874
964 -968 1168 -1180 1196 -1245 59 -133 20 -337 -85 -445 -116 -118 -341 -152
-461 -69 -97 67 -343 306 -1526 1489 -1202 1203 -1646 1657 -1676 1715 -20 39
-28 169 -14 236 34 162 134 265 299 304 72 18 124 19 197 4z m-643 -1113 c94
-19 219 -81 308 -152 124 -98 531 -497 1361 -1329 994 -998 1039 -1048 1115
-1224 42 -97 54 -175 54 -372 0 -191 -14 -245 -94 -363 -143 -209 -496 -574
-2227 -2300 -1235 -1231 -1695 -1680 -1780 -1737 -60 -40 -181 -84 -300 -108
-128 -27 -239 -23 -380 13 -151 39 -230 81 -343 182 -268 240 -1788 1753
-2130 2120 -302 325 -351 418 -363 685 -6 158 14 296 58 386 88 179 426 530
2365 2464 1563 1558 1670 1657 1850 1721 107 37 353 44 506 14z"/>
<path d="M4520 7009 c-32 -13 -78 -56 -96 -91 -41 -79 0 -144 240 -384 210
-209 255 -241 328 -231 82 11 133 71 133 155 0 50 -5 64 -37 107 -56 77 -398
410 -445 434 -45 23 -83 26 -123 10z"/>
<path d="M3734 6226 c-16 -7 -47 -33 -68 -57 -34 -39 -37 -49 -33 -86 3 -29
19 -63 52 -110 56 -78 816 -843 884 -888 139 -93 320 58 242 203 -45 86 -800
843 -916 920 -54 35 -107 41 -161 18z"/>
<path d="M2965 5455 c-43 -23 -64 -44 -92 -93 -51 -87 -23 -132 236 -393 187
-187 241 -229 300 -229 75 0 144 56 167 137 14 48 14 55 -2 90 -21 45 -386
414 -457 462 -58 40 -110 48 -152 26z"/>
<path d="M2202 4682 c-74 -39 -140 -130 -128 -176 10 -42 139 -182 505 -547
443 -442 512 -495 587 -456 33 17 86 71 103 104 38 75 -6 131 -458 583 -373
373 -523 510 -559 510 -10 0 -32 -8 -50 -18z"/>
<path d="M1415 3905 c-41 -21 -93 -81 -104 -122 -22 -79 27 -150 266 -385 216
-213 262 -237 363 -185 52 25 90 88 90 147 0 58 -49 122 -244 316 -237 238
-289 270 -371 229z"/>
</g>
</svg>
