<?xml version="1.0" encoding="utf-8"?>
<svg viewBox="132.145 42.145 455.71 455.71" xmlns="http://www.w3.org/2000/svg">
  <defs>
    <style type="text/css">
	.st0{display:none;}
	.st1{display:inline;}
	.st2{fill:#848484;}
	.st3{fill:#3D6666;}
	.st4{fill:#663D5A;}
	.st5{fill:#96357A;}
</style>
  </defs>
  <ellipse style="paint-order: fill; fill: rgb(150, 53, 122);" cx="360" cy="270" rx="227.855" ry="227.855"/>
  <g id="Layer_7" transform="matrix(1, 0, 0, 1, 51.771656, -25.872896)" style="">
    <g>
      <g>
        <path class="st5" d="M308.18,239.22c0.06,13.05,3.31,25.58,9.56,37.03c0.82,1.51,2.68,1.76,4.1,1.08 c3.74-1.79,7.47-3.57,11.21-5.36c-1.37-0.36-2.74-0.72-4.1-1.08c5.9,11.94,11.97,23.88,18.66,35.41c2.34,4.03,5.03,7.67,9.8,8.79 c4.61,1.08,9.33-0.52,13.45-2.53c8.39-4.09,18.09-10.41,21.81-19.35c4.44-10.7-0.73-22.58,3.67-33.24 c1.47-3.57-4.33-5.12-5.79-1.6c-3.37,8.17-1.43,16.69-1.92,25.23c-0.6,10.59-8.15,16.34-16.6,21.43 c-3.72,2.24-9.18,5.63-13.73,4.11c-4.58-1.52-7.08-8.66-9.21-12.54c-5.19-9.47-10.17-19.06-14.95-28.74 c-0.76-1.54-2.73-1.73-4.1-1.08c-3.74,1.79-7.47,3.57-11.21,5.36c1.37,0.36,2.74,0.72,4.1,1.08c-5.75-10.53-8.69-22.01-8.74-34 C314.16,235.36,308.16,235.35,308.18,239.22L308.18,239.22z" style="fill: rgb(255, 255, 255);"/>
      </g>
    </g>
    <g>
      <g>
        <path class="st5" d="M313.21,188.94c4.52-7.63,0.75-19.69-8.88-20.86c-3.79-0.46-7.91,1.31-8.73,5.39 c-0.94,4.71,3.54,8.06,7.41,9.51c9.93,3.73,25.7,3.4,30.35-8.09c3.34-8.26-5.76-20.31-14.59-14.22 c-3.71,2.56-3.69,7.27-0.87,10.53c3.66,4.24,9.74,5.39,15.05,4.75c13.3-1.59,21.23-13.9,33.8-17.07 c14.04-3.54,28.33,3.89,37.25,14.45c9.48,11.24,14.46,26.03,17.4,40.23c1.6,7.77,2.46,15.67,2.6,23.6 c0.13,8-0.76,16.01-0.31,24.01c0.65,11.39,4.63,24.05,15.23,29.97c5.25,2.93,11.07,2.76,16.7,4.38 c6.28,1.81,10.67,6.39,13.48,12.16c6.16,12.68,4.57,28.22,1.74,41.52c-6.22,29.18-20.19,57.2-38.51,80.65 c-9.7,12.43-20.51,22.74-37.48,20.17c-14.89-2.26-29.84-8.81-43.66-14.56c-30.6-12.72-62.66-28.57-84.94-53.73 c-20.15-22.76-32.54-51.38-39.72-80.66c-1.83,0.77-3.66,1.54-5.48,2.31c20.1,28.76,47.28,52.22,78.61,68.02 c15.63,7.88,32.2,13.93,49.28,17.77c8.55,1.92,17.22,3.29,25.94,4.11c3.7,0.35,7.4,0.57,11.02,1.5c2.1,0.54,10.12,3.08,9.25,6.59 c-0.45,0.21-0.91,0.42-1.36,0.63c-1.54,1.27-2.45,0.63-2.75-1.9c-0.58-1.46-0.91-3.22-1.16-4.77c-0.45-2.8-0.48-5.7-0.25-8.52 c0.5-6.03,2.39-11.98,5.09-17.37c5.28-10.56,13.36-19.31,21.29-27.93c2.61-2.84-1.62-7.09-4.24-4.24 c-14.57,15.83-30.96,34.78-27.91,57.98c0.58,4.41,1.66,9.73,5.44,12.58c2.84,2.14,7.26,2.48,9.99-0.12 c5.91-5.64-0.99-14.2-6.39-16.8c-8.29-3.98-18.28-3.43-27.19-4.72c-10.44-1.51-20.76-3.87-30.84-6.98 c-20.43-6.32-39.82-15.82-57.41-27.97c-19.92-13.76-37.36-31.03-51.23-50.88c-1.9-2.72-6.33-1.13-5.48,2.31 c5.62,22.94,14.36,45.33,27.38,65.12c13.61,20.69,31.5,36.74,52.77,49.28c23.06,13.59,47.63,24.73,72.96,33.35 c12.12,4.12,25.79,8.79,38.47,4.25c10.84-3.88,18.49-13.11,25.31-21.94c15.58-20.16,27.55-43.09,35.13-67.43 c6.27-20.12,12.1-47.8-1.93-66.19c-2.66-3.48-6.02-6.32-10.04-8.09c-5.81-2.57-12.53-1.89-18.21-4.73 c-12.39-6.19-13.27-22.29-12.94-34.3c0.72-25.8-1.62-52.72-15.74-75.16c-6.64-10.55-16.11-19.22-28.18-22.95 c-12.52-3.87-24.16-1.07-34.67,6.34c-5.43,3.83-10.76,8.32-17.47,9.6c-2.45,0.47-7.93,0.94-9.79-1.4 c-3.73-4.68,2.01-2.67,3.12-1.43c1.92,2.14,1.62,4.67,0.19,6.95c-4.13,6.6-14.77,5.83-21.22,3.69c-0.34-0.11-6.24-2.09-1.98-3.6 c1.07-0.38,3.3,2.02,3.77,2.64c2.05,2.74,2.07,6.36,0.38,9.23C306.06,189.24,311.25,192.27,313.21,188.94L313.21,188.94z" style="fill: rgb(255, 255, 255);"/>
      </g>
    </g>
    <g>
      <g>
        <path class="st5" d="M262.3,300.64c7.09,2.69,15.54,0.13,19.88-6.14c2.61-3.77,2.99-8.25,3.03-12.71 c0.04-4.53-0.66-14.24,6.05-14.67c2.75-0.18,4.36-4.15,1.51-5.59c-10.29-5.22,2.68-20.79,3.95-27.98 c1.42-8.01-1.47-16.23-6.88-22.18c-13.03-14.32-34.93-10.01-47.96,1.69c-6.78,6.08-11.94,13.73-17.25,21.06 c-2.46,3.4-5.08,8.4-8.55,10.84c-3.89,2.74-3.58-0.4-2.48-3.32c1.06-2.82,3.52-6.22,6.85-4.18c4.96,3.03,4.28,11.46,3.01,16.11 c-1.56,5.73-5,11.06-9.1,15.31c-8.26,8.54-21.68,12.96-32.07,5.3c-8.4-6.2-15.16-18.09-16.75-28.34 c-1.53-9.84,2.58-19.03,7.16-27.47c7.27-13.43,19.56-31.57,10.82-47.16c-3.83-6.83-11.67-9.54-19.03-7.13 c-8.17,2.67-13.75,9.97-15.03,18.35c-2.84,18.63,17.05,32.75,33.04,21.68c4.31-2.99,7.78-6.96,11.66-10.45 c3.96-3.55,8.41-6.5,13.16-8.87c9.72-4.86,20.71-7.08,31.54-6.73c20.57,0.66,48.84,13.46,48.69,37.51c-0.02,3.86,5.98,3.87,6,0 c0.13-20.3-18.17-34.85-36.05-40.43c-18.3-5.72-39.04-3.51-55.78,5.82c-4.02,2.24-7.81,4.93-11.27,7.97 c-4.43,3.9-8.28,8.85-13.59,11.62c-12.27,6.38-24.04-6.22-21.26-18.48c2.55-11.28,19.5-19.45,23.95-4.83 c3.04,9.99-2.51,20.82-7.17,29.35c-4.38,8.02-9.4,15.93-11.79,24.84c-2.7,10.06-0.92,20.02,3.75,29.21 c4.47,8.79,11.16,18.3,20.74,21.89c9.53,3.57,20.28,1.05,28.3-4.85c8.21-6.04,14.89-15.6,16.56-25.76 c1.26-7.62-0.9-19.75-10.31-21.01c-8.04-1.08-12.91,8.06-12.94,15.01c-0.01,3.34,1.92,6.2,5.32,6.66 c4.08,0.56,7.64-2.48,10.1-5.36c13.74-16.11,27.97-46.65,54.46-37.53c6.31,2.17,11.42,7.25,13.5,13.62 c2.08,6.38,0.39,11.74-2.55,17.53c-4.07,8.02-8.26,20.58,2.21,25.89c0.5-1.86,1.01-3.73,1.51-5.59c-7.71,0.5-11.49,7.56-12,14.62 c-0.38,5.24,1.11,11.48-2.44,15.91c-3.16,3.94-8.34,4.95-12.92,3.21C260.28,293.48,258.72,299.28,262.3,300.64L262.3,300.64z" style="fill: rgb(255, 255, 255);"/>
      </g>
    </g>
    <g>
      <g>
        <path class="st5" d="M206.62,293.38c2.06,4.51,1.83,9.85-0.92,14.04c-2.46,3.74-6.69,5.88-10.37,8.21 c-6.6,4.18-11.09,9.23-13.52,16.77c-4.95,15.33-1.2,32.36,8.85,44.76c10.88,13.43,25.64,24.36,39.71,34.23 c14.68,10.29,30.13,19.42,45.66,28.34c17.82,10.23,35.79,20.22,53.07,31.36c1.26,0.81,3.46,0.36,4.1-1.08 c5.9-13.13,20.32-18.13,33.07-22.2c3.66-1.17,2.1-6.97-1.6-5.79c-14.16,4.53-30.12,10.41-36.66,24.96 c1.37-0.36,2.74-0.72,4.1-1.08c-29.49-19-61.03-34.6-90.3-53.96c-14.86-9.83-29.31-20.64-41.83-33.37 c-12.32-12.53-19.71-32.63-10.44-49.26c4.5-8.07,14.28-10.11,19.99-17.04c5.17-6.28,5.56-14.72,2.26-21.92 C210.2,286.85,205.02,289.89,206.62,293.38L206.62,293.38z" style="fill: rgb(255, 255, 255);"/>
      </g>
    </g>
    <g>
      <g>
        <path class="st5" d="M332.63,232.78c5.94,0.15,11.49-2.12,15.63-6.39c1.34-1.39-0.77-3.51-2.12-2.12 c-3.62,3.74-8.31,5.64-13.51,5.51C330.7,229.73,330.7,232.73,332.63,232.78L332.63,232.78z" style="fill: rgb(255, 255, 255);"/>
      </g>
    </g>
    <g>
      <g>
        <path class="st5" d="M351.68,284.11c1.99,0.69,4.15,0.67,6.09-0.19c2.17-0.96,3.49-2.88,5.1-4.53c1.35-1.38-0.77-3.5-2.12-2.12 c-2.45,2.5-4.33,5.32-8.27,3.95C350.66,280.58,349.87,283.47,351.68,284.11L351.68,284.11z" style="fill: rgb(255, 255, 255);"/>
      </g>
    </g>
    <g>
      <g>
        <path class="st5" d="M274.58,246.86c-4.07,0.92-8.16-0.16-11.24-2.99c-1.42-1.3-3.55,0.81-2.12,2.12 c3.89,3.56,9.02,4.92,14.16,3.76C277.26,249.32,276.46,246.43,274.58,246.86L274.58,246.86z" style="fill: rgb(255, 255, 255);"/>
      </g>
    </g>
    <g>
      <g>
        <path class="st5" d="M263.86,281.44c2.24,1.38,4.58,2.55,7,3.57c1.78,0.75,2.55-2.15,0.8-2.89c-2.18-0.92-4.27-2.03-6.29-3.27 C263.72,277.83,262.21,280.42,263.86,281.44L263.86,281.44z" style="fill: rgb(255, 255, 255);"/>
      </g>
    </g>
    <g>
      <g>
        <path class="st5" d="M278.18,317.96c0.3,2.62-1.01,4.91-3.43,5.98c-1.76,0.78-0.24,3.37,1.51,2.59c3.26-1.44,5.31-5.02,4.91-8.57 C280.96,316.06,277.96,316.04,278.18,317.96L278.18,317.96z" style="fill: rgb(255, 255, 255);"/>
      </g>
    </g>
    <g>
      <g>
        <path class="st5" d="M268.97,336.18c-0.09,1.74-1.57,3.37-3.33,3.54c-1.9,0.18-1.92,3.19,0,3c3.45-0.33,6.14-3.05,6.33-6.54 C272.08,334.25,269.08,334.25,268.97,336.18L268.97,336.18z" style="fill: rgb(255, 255, 255);"/>
      </g>
    </g>
    <g>
      <g>
        <path class="st5" d="M307.27,333.26c17.22-1.36,34.01,2.63,50.41,7.5c12.51,3.72,26.14,8.7,32.45,21.03 c1.76,3.44,6.94,0.41,5.18-3.03c-6.57-12.82-20.18-18.84-33.27-22.94c-17.64-5.52-36.16-10.02-54.77-8.55 C303.44,327.56,303.41,333.56,307.27,333.26L307.27,333.26z" style="fill: rgb(255, 255, 255);"/>
      </g>
    </g>
    <g>
      <g>
        <path class="st5" d="M287.93,343.28c3.3-0.84,5.7-4.12,5.31-7.54c-0.22-1.9-3.22-1.92-3,0c0.24,2.14-0.98,4.11-3.11,4.65 C285.26,340.87,286.05,343.76,287.93,343.28L287.93,343.28z" style="fill: rgb(255, 255, 255);"/>
      </g>
    </g>
    <g>
      <g>
        <path class="st5" d="M285.65,361.12c5.67-1.38,11.65-2.35,16.28-6.16c3.9-3.21,6.54-7.91,7.55-12.83 c2.27-11.04-3.34-21.66-11.9-28.4c-9.76-7.68-23.86-11.14-36.14-10.97c-11.06,0.16-22.85,6.44-22.94,18.78 c-0.03,3.86,5.97,3.87,6,0c0.08-11.37,13.22-13.36,22-12.54c9.73,0.92,20.31,3.53,27.98,9.89c6.5,5.39,11.07,13.73,9.08,22.33 c-2.33,10.05-10.71,11.99-19.5,14.13C280.3,356.25,281.89,362.04,285.65,361.12L285.65,361.12z" style="fill: rgb(255, 255, 255);"/>
      </g>
    </g>
  </g>
</svg>